<?xml version="1.0" encoding="UTF-8" standalone="no"?>
<!-- Created with Inkscape (http://www.inkscape.org/) -->

<svg
   width="80mm"
   height="80mm"
   viewBox="0 0 80 80"
   version="1.1"
   id="svg5"
   xmlns="http://www.w3.org/2000/svg"
   xmlns:svg="http://www.w3.org/2000/svg">
  <defs id="defs2" />
  <g
     id="layer1"
     transform="translate(-71.573486,-110.88708)">
    <g
       id="g418" />
    <path
       id="path234"
       style="fill:#000000;stroke-width:8.60919;stroke-linecap:round;paint-order:stroke fill markers"
       d="M 135.22231 113.80628 A 13.129032 13.129032 0 0 0 122.0934 126.93571 A 13.129032 13.129032 0 0 0 122.14714 128.06949 L 94.342122 141.18394 A 12.410439 12.410439 0 0 0 87.206124 138.92671 A 12.410439 12.410439 0 0 0 74.795512 151.33681 A 12.410439 12.410439 0 0 0 87.206124 163.74742 A 12.410439 12.410439 0 0 0 94.399483 161.4473 L 122.10529 174.51575 A 13.129032 13.129032 0 0 0 122.0934 174.83873 A 13.129032 13.129032 0 0 0 135.22231 187.96765 A 13.129032 13.129032 0 0 0 148.35123 174.83873 A 13.129032 13.129032 0 0 0 135.22231 161.70982 A 13.129032 13.129032 0 0 0 126.3474 165.16697 L 99.556791 152.53053 A 12.410439 12.410439 0 0 0 99.616736 151.33681 A 12.410439 12.410439 0 0 0 99.55214 150.0759 L 126.9701 137.14336 A 13.129032 13.129032 0 0 0 135.22231 140.06463 A 13.129032 13.129032 0 0 0 148.35123 126.93571 A 13.129032 13.129032 0 0 0 135.22231 113.80628 z " />
  </g>
</svg>
